%TF.GenerationSoftware,KiCad,Pcbnew,7.0.6*%
%TF.CreationDate,2024-06-14T01:31:42+02:00*%
%TF.ProjectId,SoliDAQ,536f6c69-4441-4512-9e6b-696361645f70,rev?*%
%TF.SameCoordinates,Original*%
%TF.FileFunction,Soldermask,Bot*%
%TF.FilePolarity,Negative*%
%FSLAX46Y46*%
G04 Gerber Fmt 4.6, Leading zero omitted, Abs format (unit mm)*
G04 Created by KiCad (PCBNEW 7.0.6) date 2024-06-14 01:31:42*
%MOMM*%
%LPD*%
G01*
G04 APERTURE LIST*
G04 Aperture macros list*
%AMRoundRect*
0 Rectangle with rounded corners*
0 $1 Rounding radius*
0 $2 $3 $4 $5 $6 $7 $8 $9 X,Y pos of 4 corners*
0 Add a 4 corners polygon primitive as box body*
4,1,4,$2,$3,$4,$5,$6,$7,$8,$9,$2,$3,0*
0 Add four circle primitives for the rounded corners*
1,1,$1+$1,$2,$3*
1,1,$1+$1,$4,$5*
1,1,$1+$1,$6,$7*
1,1,$1+$1,$8,$9*
0 Add four rect primitives between the rounded corners*
20,1,$1+$1,$2,$3,$4,$5,0*
20,1,$1+$1,$4,$5,$6,$7,0*
20,1,$1+$1,$6,$7,$8,$9,0*
20,1,$1+$1,$8,$9,$2,$3,0*%
G04 Aperture macros list end*
%ADD10R,2.100000X2.100000*%
%ADD11C,2.100000*%
%ADD12C,0.800000*%
%ADD13C,6.400000*%
%ADD14C,1.100000*%
%ADD15RoundRect,0.102000X-0.654000X-0.654000X0.654000X-0.654000X0.654000X0.654000X-0.654000X0.654000X0*%
%ADD16C,1.512000*%
%ADD17RoundRect,0.102000X-0.754000X-0.754000X0.754000X-0.754000X0.754000X0.754000X-0.754000X0.754000X0*%
%ADD18C,1.712000*%
%ADD19R,1.600000X1.600000*%
%ADD20C,1.600000*%
%ADD21R,1.320800X1.320800*%
%ADD22C,1.320800*%
%ADD23C,2.390000*%
%ADD24C,3.450000*%
%ADD25RoundRect,0.250000X0.350000X0.625000X-0.350000X0.625000X-0.350000X-0.625000X0.350000X-0.625000X0*%
%ADD26O,1.200000X1.750000*%
G04 APERTURE END LIST*
D10*
%TO.C,J12*%
X127815000Y-62000000D03*
D11*
X125275000Y-62000000D03*
X122735000Y-62000000D03*
X120195000Y-62000000D03*
%TD*%
%TO.C,J1*%
X106500000Y-150500000D03*
D10*
X103960000Y-150500000D03*
%TD*%
D12*
%TO.C,H3*%
X82600000Y-150000000D03*
X83302944Y-148302944D03*
X83302944Y-151697056D03*
X85000000Y-147600000D03*
D13*
X85000000Y-150000000D03*
D12*
X85000000Y-152400000D03*
X86697056Y-148302944D03*
X86697056Y-151697056D03*
X87400000Y-150000000D03*
%TD*%
%TO.C,H4*%
X172600000Y-150000000D03*
X173302944Y-148302944D03*
X173302944Y-151697056D03*
X175000000Y-147600000D03*
D13*
X175000000Y-150000000D03*
D12*
X175000000Y-152400000D03*
X176697056Y-148302944D03*
X176697056Y-151697056D03*
X177400000Y-150000000D03*
%TD*%
D14*
%TO.C,J11*%
X132500000Y-64275000D03*
X141500000Y-64275000D03*
D15*
X140000000Y-66375000D03*
D16*
X138000000Y-66375000D03*
X136000000Y-66375000D03*
X134000000Y-66375000D03*
%TD*%
D17*
%TO.C,J14*%
X160690000Y-98000000D03*
D18*
X163230000Y-98000000D03*
X165770000Y-98000000D03*
X168310000Y-98000000D03*
%TD*%
D19*
%TO.C,A1*%
X148552500Y-147800000D03*
D20*
X148552500Y-145260000D03*
X148552500Y-142720000D03*
X148552500Y-140180000D03*
X148552500Y-137640000D03*
X148552500Y-135100000D03*
X148552500Y-132560000D03*
X148552500Y-130020000D03*
X148552500Y-127480000D03*
X148552500Y-124940000D03*
X148552500Y-122400000D03*
X148552500Y-119860000D03*
X148552500Y-117320000D03*
X148552500Y-114780000D03*
X148552500Y-112240000D03*
X148552500Y-109700000D03*
X128232500Y-109700000D03*
X128232500Y-112240000D03*
X128232500Y-114780000D03*
X128232500Y-117320000D03*
X128232500Y-119860000D03*
X128232500Y-122400000D03*
X128232500Y-124940000D03*
X128232500Y-127480000D03*
X128232500Y-130020000D03*
X128232500Y-132560000D03*
X128232500Y-135100000D03*
X128232500Y-137640000D03*
%TD*%
D21*
%TO.C,J5*%
X121499999Y-146154699D03*
D22*
X123500000Y-146154699D03*
%TD*%
D10*
%TO.C,J8*%
X140815000Y-62000000D03*
D11*
X138275000Y-62000000D03*
X135735000Y-62000000D03*
X133195000Y-62000000D03*
%TD*%
D14*
%TO.C,J10*%
X145500000Y-64275000D03*
X154500000Y-64275000D03*
D15*
X153000000Y-66375000D03*
D16*
X151000000Y-66375000D03*
X149000000Y-66375000D03*
X147000000Y-66375000D03*
%TD*%
D14*
%TO.C,J13*%
X119500000Y-64275000D03*
X128500000Y-64275000D03*
D15*
X127000000Y-66375000D03*
D16*
X125000000Y-66375000D03*
X123000000Y-66375000D03*
X121000000Y-66375000D03*
%TD*%
D23*
%TO.C,J3*%
X88000000Y-140930000D03*
D24*
X104000000Y-132600000D03*
X88000000Y-77400000D03*
%TD*%
D10*
%TO.C,J7*%
X166815000Y-62000000D03*
D11*
X164275000Y-62000000D03*
X161735000Y-62000000D03*
X159195000Y-62000000D03*
%TD*%
D10*
%TO.C,J4*%
X121210000Y-149250000D03*
D11*
X123750000Y-149250000D03*
%TD*%
D12*
%TO.C,H1*%
X82600000Y-60000000D03*
X83302944Y-58302944D03*
X83302944Y-61697056D03*
X85000000Y-57600000D03*
D13*
X85000000Y-60000000D03*
D12*
X85000000Y-62400000D03*
X86697056Y-58302944D03*
X86697056Y-61697056D03*
X87400000Y-60000000D03*
%TD*%
D10*
%TO.C,J6*%
X153815000Y-62000000D03*
D11*
X151275000Y-62000000D03*
X148735000Y-62000000D03*
X146195000Y-62000000D03*
%TD*%
D25*
%TO.C,J2*%
X97000000Y-135950000D03*
D26*
X95000000Y-135950000D03*
%TD*%
D12*
%TO.C,H2*%
X172600000Y-60000000D03*
X173302944Y-58302944D03*
X173302944Y-61697056D03*
X175000000Y-57600000D03*
D13*
X175000000Y-60000000D03*
D12*
X175000000Y-62400000D03*
X176697056Y-58302944D03*
X176697056Y-61697056D03*
X177400000Y-60000000D03*
%TD*%
D14*
%TO.C,J9*%
X158500000Y-64275000D03*
X167500000Y-64275000D03*
D15*
X166000000Y-66375000D03*
D16*
X164000000Y-66375000D03*
X162000000Y-66375000D03*
X160000000Y-66375000D03*
%TD*%
M02*
