M48
; DRILL file {KiCad 7.0.6} date Fri Jun 14 01:31:45 2024
; FORMAT={-:-/ absolute / inch / decimal}
; #@! TF.CreationDate,2024-06-14T01:31:45+02:00
; #@! TF.GenerationSoftware,Kicad,Pcbnew,7.0.6
; #@! TF.FileFunction,Plated,1,2,PTH
FMAT,2
INCH
; #@! TA.AperFunction,Plated,PTH,ViaDrill
T1C0.0157
; #@! TA.AperFunction,Plated,PTH,ComponentDrill
T2C0.0197
; #@! TA.AperFunction,Plated,PTH,ComponentDrill
T3C0.0295
; #@! TA.AperFunction,Plated,PTH,ComponentDrill
T4C0.0315
; #@! TA.AperFunction,Plated,PTH,ComponentDrill
T5C0.0320
; #@! TA.AperFunction,Plated,PTH,ComponentDrill
T6C0.0394
; #@! TA.AperFunction,Plated,PTH,ComponentDrill
T7C0.0433
; #@! TA.AperFunction,Plated,PTH,ComponentDrill
T8C0.1260
%
G90
G05
T1
X3.248Y-2.5591
X3.248Y-2.7559
X3.248Y-2.9528
X3.248Y-3.1496
X3.248Y-3.3465
X3.248Y-3.5433
X3.248Y-3.7402
X3.248Y-3.937
X3.248Y-4.1339
X3.248Y-4.3307
X3.248Y-4.5276
X3.248Y-4.7244
X3.248Y-4.9213
X3.248Y-5.1181
X3.248Y-5.315
X3.248Y-5.5118
X3.248Y-5.7087
X3.5433Y-2.2638
X3.5433Y-4.1929
X3.5433Y-6.0039
X3.5827Y-4.8622
X3.5827Y-5.1969
X3.5827Y-5.7087
X3.622Y-3.3465
X3.7008Y-2.4803
X3.7008Y-2.5591
X3.7008Y-2.6378
X3.7008Y-2.7165
X3.7402Y-2.2638
X3.7402Y-6.0039
X3.7795Y-2.4803
X3.7795Y-2.5591
X3.7795Y-2.6378
X3.7795Y-2.7165
X3.8386Y-3.7598
X3.8583Y-2.4803
X3.8583Y-2.5591
X3.8583Y-2.6378
X3.8583Y-2.7165
X3.878Y-4.6063
X3.937Y-2.2638
X3.937Y-6.0039
X3.9961Y-5.8465
X4.0157Y-5.5118
X4.0551Y-3.0315
X4.0551Y-3.2677
X4.0551Y-3.5039
X4.0551Y-3.7992
X4.0551Y-4.0748
X4.0551Y-4.3898
X4.1339Y-2.2638
X4.1339Y-6.0039
X4.1634Y-5.8268
X4.1732Y-4.626
X4.1929Y-2.8937
X4.2323Y-2.4213
X4.252Y-2.6181
X4.252Y-4.2618
X4.252Y-4.3996
X4.252Y-5.3937
X4.2618Y-4.1339
X4.2815Y-3.9272
X4.2815Y-3.9764
X4.2815Y-4.0256
X4.2913Y-3.1693
X4.2913Y-3.3071
X4.2913Y-3.4449
X4.2913Y-3.5827
X4.2913Y-3.7402
X4.3307Y-2.2638
X4.3307Y-3.8386
X4.3307Y-6.0039
X4.3406Y-4.3307
X4.3406Y-4.4094
X4.3406Y-4.4882
X4.3504Y-4.2224
X4.3504Y-4.7441
X4.3898Y-3.0709
X4.3898Y-4.9409
X4.3898Y-5.1772
X4.3996Y-5.8366
X4.4021Y-2.5079
X4.4094Y-4.3307
X4.4094Y-4.4094
X4.4094Y-4.4882
X4.4488Y-2.7953
X4.4587Y-4.1339
X4.4587Y-4.1732
X4.4685Y-2.9134
X4.4685Y-3.2087
X4.4685Y-3.2874
X4.4685Y-3.3661
X4.4685Y-3.4449
X4.4685Y-3.5236
X4.4685Y-3.6024
X4.4685Y-3.7008
X4.4783Y-2.3917
X4.4783Y-4.4882
X4.4882Y-2.6378
X4.4882Y-3.7992
X4.4882Y-3.8976
X4.5079Y-2.2244
X4.5079Y-4.1732
X4.5276Y-3.1496
X4.5276Y-6.0039
X4.5669Y-2.3425
X4.5669Y-3.8976
X4.5866Y-3.1102
X4.6063Y-5.2165
X4.626Y-3.3071
X4.6457Y-2.2244
X4.6457Y-2.6181
X4.6457Y-2.7362
X4.6457Y-2.8346
X4.6457Y-2.9528
X4.6457Y-3.0315
X4.6457Y-3.4646
X4.6654Y-3.8976
X4.685Y-3.1693
X4.7244Y-2.874
X4.7343Y-6.0335
X4.7441Y-3.0315
X4.7441Y-5.689
X4.7638Y-2.7165
X4.7638Y-3.8976
X4.7835Y-2.9724
X4.8031Y-2.2244
X4.8031Y-3.7402
X4.8031Y-4.8425
X4.813Y-3.435
X4.8228Y-3.0315
X4.8622Y-3.8976
X4.8622Y-4.9803
X4.872Y-3.2087
X4.8819Y-4.7835
X4.9016Y-4.0354
X4.9016Y-4.1732
X4.9016Y-4.311
X4.9016Y-4.4882
X4.9213Y-2.6772
X4.9213Y-2.7756
X4.9213Y-2.874
X4.9213Y-3.0315
X4.9213Y-5.5315
X4.9213Y-5.8071
X4.9213Y-6.0039
X4.9606Y-3.9173
X4.9606Y-5.0787
X4.9803Y-3.1102
X4.9803Y-3.6614
X5.0394Y-2.8642
X5.0394Y-3.0315
X5.0394Y-3.4252
X5.0394Y-3.8386
X5.0394Y-4.2126
X5.0591Y-3.248
X5.0591Y-4.0748
X5.0787Y-2.6969
X5.0984Y-2.815
X5.1083Y-3.9272
X5.1181Y-3.1102
X5.1181Y-3.7598
X5.1181Y-6.0039
X5.1378Y-2.2244
X5.1378Y-2.4409
X5.1378Y-2.5394
X5.1575Y-2.6378
X5.1575Y-2.9331
X5.1575Y-4.2323
X5.1575Y-5.7874
X5.1772Y-4.9409
X5.1772Y-5.4724
X5.1969Y-2.8346
X5.1969Y-3.189
X5.1969Y-3.6811
X5.2165Y-3.4547
X5.2362Y-3.0512
X5.2362Y-3.8386
X5.2362Y-5.1181
X5.2559Y-2.9921
X5.2559Y-3.622
X5.2756Y-2.6969
X5.2756Y-2.7953
X5.2756Y-2.8937
X5.2756Y-3.248
X5.2756Y-3.3778
X5.2756Y-4.1535
X5.2756Y-5.2756
X5.315Y-3.0906
X5.315Y-3.563
X5.315Y-4.8228
X5.315Y-6.0039
X5.3543Y-3.1693
X5.3543Y-4.0551
X5.3937Y-2.3524
X5.3937Y-3.4055
X5.3937Y-3.4843
X5.4044Y-3.3282
X5.4134Y-2.2244
X5.4134Y-5.6496
X5.4232Y-3.6319
X5.4331Y-3.7205
X5.4331Y-4.685
X5.4429Y-3.4449
X5.502Y-4.1043
X5.5118Y-2.9134
X5.5118Y-3.622
X5.5118Y-6.0039
X5.5315Y-2.9921
X5.5315Y-3.5236
X5.5315Y-3.7795
X5.5315Y-3.9764
X5.5315Y-5.2756
X5.5413Y-4.5571
X5.5512Y-4.1535
X5.5512Y-5.4724
X5.5709Y-3.2579
X5.5709Y-3.3169
X5.5906Y-2.6969
X5.5906Y-2.7953
X5.5906Y-2.8937
X5.5906Y-3.1496
X5.6299Y-3.3858
X5.6496Y-2.2244
X5.6496Y-4.5669
X5.6693Y-3.2283
X5.6693Y-4.9311
X5.6693Y-5.1378
X5.6851Y-3.3012
X5.7087Y-2.7165
X5.7087Y-2.8346
X5.7087Y-2.9528
X5.7087Y-4.4094
X5.7087Y-4.7244
X5.7087Y-5.5906
X5.7087Y-5.7677
X5.7087Y-6.0039
X5.7283Y-3.563
X5.7283Y-5.2756
X5.748Y-3.6417
X5.748Y-4.1043
X5.748Y-4.1535
X5.748Y-4.2323
X5.7677Y-2.9921
X5.7677Y-3.5039
X5.7677Y-3.8189
X5.7677Y-3.9173
X5.7874Y-2.7165
X5.7874Y-2.815
X5.7874Y-2.9134
X5.7874Y-3.0709
X5.8268Y-3.4547
X5.8465Y-3.563
X5.8465Y-4.0354
X5.8661Y-3.189
X5.8661Y-3.7598
X5.8858Y-3.4547
X5.9055Y-6.0039
X5.9154Y-2.3524
X5.9252Y-4.2323
X5.9449Y-3.0512
X5.9449Y-3.3071
X5.9449Y-4.5866
X5.9449Y-5.315
X5.9449Y-5.5315
X5.9646Y-3.1496
X5.9646Y-3.8583
X5.9646Y-4.8819
X5.9646Y-5.6299
X6.0039Y-3.3858
X6.0039Y-3.5039
X6.0039Y-3.6614
X6.0039Y-5.0
X6.0236Y-2.9134
X6.0236Y-3.0512
X6.0236Y-5.4134
X6.0433Y-2.9921
X6.0433Y-3.2677
X6.063Y-4.0354
X6.0827Y-3.7008
X6.0827Y-4.9213
X6.1024Y-2.7165
X6.1024Y-2.815
X6.1024Y-2.9134
X6.1024Y-3.0709
X6.1024Y-3.2087
X6.1024Y-3.4843
X6.1024Y-5.0984
X6.1024Y-6.0039
X6.1614Y-2.2244
X6.1614Y-2.4213
X6.1614Y-2.5787
X6.1614Y-3.8583
X6.1811Y-2.6772
X6.1811Y-2.9528
X6.1811Y-5.3937
X6.1909Y-4.8327
X6.2008Y-3.0709
X6.2008Y-3.2087
X6.2008Y-4.252
X6.2008Y-4.5669
X6.2303Y-5.0689
X6.2303Y-5.2559
X6.2303Y-5.3543
X6.2303Y-5.4921
X6.2402Y-3.2874
X6.2598Y-4.0354
X6.2598Y-5.6299
X6.2795Y-2.9921
X6.2992Y-2.7165
X6.2992Y-2.815
X6.2992Y-2.9134
X6.2992Y-3.0709
X6.2992Y-3.2087
X6.2992Y-6.0039
X6.3583Y-3.563
X6.378Y-3.9862
X6.4075Y-5.5709
X6.4173Y-3.1299
X6.4194Y-3.6663
X6.4272Y-2.3524
X6.437Y-4.3504
X6.437Y-4.5669
X6.437Y-5.4528
X6.4469Y-5.7776
X6.4567Y-3.3071
X6.4567Y-4.7244
X6.4567Y-4.8622
X6.4567Y-5.0098
X6.4567Y-5.1476
X6.4961Y-3.0906
X6.4961Y-6.0039
X6.5157Y-3.563
X6.5157Y-4.1929
X6.5354Y-2.9134
X6.5551Y-2.9921
X6.5945Y-4.9606
X6.5945Y-5.8071
X6.6142Y-2.6772
X6.6142Y-2.7756
X6.6142Y-2.874
X6.6142Y-4.6063
X6.6339Y-3.5827
X6.6535Y-2.2441
X6.6634Y-4.7343
X6.6732Y-2.3622
X6.6929Y-3.3071
X6.6929Y-3.9961
X6.6929Y-6.0039
X6.7126Y-2.5591
X6.7323Y-3.5039
X6.7323Y-4.1339
X6.7323Y-4.311
X6.752Y-2.9724
X6.7717Y-3.7402
X6.8307Y-2.7165
X6.8504Y-3.7795
X6.8898Y-3.6614
X6.9094Y-3.5039
X6.9882Y-2.5591
X6.9882Y-2.7559
X6.9882Y-2.9528
X6.9882Y-3.1496
X6.9882Y-3.3465
X6.9882Y-3.5433
X6.9882Y-3.7402
X6.9882Y-3.937
X6.9882Y-4.1339
X6.9882Y-4.3307
X6.9882Y-4.5276
X6.9882Y-4.7244
X6.9882Y-4.9213
X6.9882Y-5.1181
X6.9882Y-5.315
X6.9882Y-5.5118
X6.9882Y-5.7087
T2
X3.252Y-2.3622
X3.252Y-5.9055
X3.2796Y-2.2954
X3.2796Y-2.429
X3.2796Y-5.8387
X3.2796Y-5.9723
X3.3465Y-2.2677
X3.3465Y-2.4567
X3.3465Y-5.811
X3.3465Y-6.0
X3.4133Y-2.2954
X3.4133Y-2.429
X3.4133Y-5.8387
X3.4133Y-5.9723
X3.4409Y-2.3622
X3.4409Y-5.9055
X6.7953Y-2.3622
X6.7953Y-5.9055
X6.823Y-2.2954
X6.823Y-2.429
X6.823Y-5.8387
X6.823Y-5.9723
X6.8898Y-2.2677
X6.8898Y-2.4567
X6.8898Y-5.811
X6.8898Y-6.0
X6.9566Y-2.2954
X6.9566Y-2.429
X6.9566Y-5.8387
X6.9566Y-5.9723
X6.9843Y-2.3622
X6.9843Y-5.9055
T3
X3.7402Y-5.3524
X3.8189Y-5.3524
T4
X4.7638Y-2.6132
X4.8425Y-2.6132
X4.9213Y-2.6132
X5.0Y-2.6132
X5.0485Y-4.3189
X5.0485Y-4.4189
X5.0485Y-4.5189
X5.0485Y-4.6189
X5.0485Y-4.7189
X5.0485Y-4.8189
X5.0485Y-4.9189
X5.0485Y-5.0189
X5.0485Y-5.1189
X5.0485Y-5.2189
X5.0485Y-5.3189
X5.0485Y-5.4189
X5.2756Y-2.6132
X5.3543Y-2.6132
X5.4331Y-2.6132
X5.5118Y-2.6132
X5.7874Y-2.6132
X5.8485Y-4.3189
X5.8485Y-4.4189
X5.8485Y-4.5189
X5.8485Y-4.6189
X5.8485Y-4.7189
X5.8485Y-4.8189
X5.8485Y-4.9189
X5.8485Y-5.0189
X5.8485Y-5.1189
X5.8485Y-5.2189
X5.8485Y-5.3189
X5.8485Y-5.4189
X5.8485Y-5.5189
X5.8485Y-5.6189
X5.8485Y-5.7189
X5.8485Y-5.8189
X5.8661Y-2.6132
X5.9449Y-2.6132
X6.0236Y-2.6132
X6.2992Y-2.6132
X6.378Y-2.6132
X6.4567Y-2.6132
X6.5354Y-2.6132
T5
X4.7835Y-5.7541
X4.8622Y-5.7541
T6
X6.3264Y-3.8583
X6.4264Y-3.8583
X6.5264Y-3.8583
X6.6264Y-3.8583
T7
X4.0929Y-5.9252
X4.1929Y-5.9252
X4.7321Y-2.4409
X4.772Y-5.876
X4.8321Y-2.4409
X4.872Y-5.876
X4.9321Y-2.4409
X5.0321Y-2.4409
X5.2439Y-2.4409
X5.3439Y-2.4409
X5.4439Y-2.4409
X5.5439Y-2.4409
X5.7557Y-2.4409
X5.8557Y-2.4409
X5.9557Y-2.4409
X6.0557Y-2.4409
X6.2675Y-2.4409
X6.3675Y-2.4409
X6.4675Y-2.4409
X6.5675Y-2.4409
T8
X3.3465Y-2.3622
X3.3465Y-5.9055
X6.8898Y-2.3622
X6.8898Y-5.9055
T0
M30
