%TF.GenerationSoftware,KiCad,Pcbnew,7.0.6*%
%TF.CreationDate,2024-06-14T01:31:42+02:00*%
%TF.ProjectId,SoliDAQ,536f6c69-4441-4512-9e6b-696361645f70,rev?*%
%TF.SameCoordinates,Original*%
%TF.FileFunction,Soldermask,Top*%
%TF.FilePolarity,Negative*%
%FSLAX46Y46*%
G04 Gerber Fmt 4.6, Leading zero omitted, Abs format (unit mm)*
G04 Created by KiCad (PCBNEW 7.0.6) date 2024-06-14 01:31:42*
%MOMM*%
%LPD*%
G01*
G04 APERTURE LIST*
G04 Aperture macros list*
%AMRoundRect*
0 Rectangle with rounded corners*
0 $1 Rounding radius*
0 $2 $3 $4 $5 $6 $7 $8 $9 X,Y pos of 4 corners*
0 Add a 4 corners polygon primitive as box body*
4,1,4,$2,$3,$4,$5,$6,$7,$8,$9,$2,$3,0*
0 Add four circle primitives for the rounded corners*
1,1,$1+$1,$2,$3*
1,1,$1+$1,$4,$5*
1,1,$1+$1,$6,$7*
1,1,$1+$1,$8,$9*
0 Add four rect primitives between the rounded corners*
20,1,$1+$1,$2,$3,$4,$5,0*
20,1,$1+$1,$4,$5,$6,$7,0*
20,1,$1+$1,$6,$7,$8,$9,0*
20,1,$1+$1,$8,$9,$2,$3,0*%
G04 Aperture macros list end*
%ADD10RoundRect,0.250000X-0.250000X-0.475000X0.250000X-0.475000X0.250000X0.475000X-0.250000X0.475000X0*%
%ADD11RoundRect,0.225000X-0.250000X0.225000X-0.250000X-0.225000X0.250000X-0.225000X0.250000X0.225000X0*%
%ADD12RoundRect,0.225000X0.250000X-0.225000X0.250000X0.225000X-0.250000X0.225000X-0.250000X-0.225000X0*%
%ADD13RoundRect,0.200000X0.275000X-0.200000X0.275000X0.200000X-0.275000X0.200000X-0.275000X-0.200000X0*%
%ADD14RoundRect,0.218750X-0.218750X-0.256250X0.218750X-0.256250X0.218750X0.256250X-0.218750X0.256250X0*%
%ADD15RoundRect,0.200000X0.200000X0.275000X-0.200000X0.275000X-0.200000X-0.275000X0.200000X-0.275000X0*%
%ADD16C,1.000000*%
%ADD17RoundRect,0.250000X0.250000X0.475000X-0.250000X0.475000X-0.250000X-0.475000X0.250000X-0.475000X0*%
%ADD18R,2.100000X2.100000*%
%ADD19C,2.100000*%
%ADD20RoundRect,0.200000X-0.200000X-0.275000X0.200000X-0.275000X0.200000X0.275000X-0.200000X0.275000X0*%
%ADD21RoundRect,0.250000X-0.475000X0.250000X-0.475000X-0.250000X0.475000X-0.250000X0.475000X0.250000X0*%
%ADD22RoundRect,0.218750X0.256250X-0.218750X0.256250X0.218750X-0.256250X0.218750X-0.256250X-0.218750X0*%
%ADD23RoundRect,0.150000X0.587500X0.150000X-0.587500X0.150000X-0.587500X-0.150000X0.587500X-0.150000X0*%
%ADD24RoundRect,0.250000X-0.650000X1.000000X-0.650000X-1.000000X0.650000X-1.000000X0.650000X1.000000X0*%
%ADD25RoundRect,0.250000X-1.000000X-0.650000X1.000000X-0.650000X1.000000X0.650000X-1.000000X0.650000X0*%
%ADD26C,0.800000*%
%ADD27C,6.400000*%
%ADD28RoundRect,0.225000X0.225000X0.250000X-0.225000X0.250000X-0.225000X-0.250000X0.225000X-0.250000X0*%
%ADD29RoundRect,0.225000X-0.225000X-0.250000X0.225000X-0.250000X0.225000X0.250000X-0.225000X0.250000X0*%
%ADD30C,1.100000*%
%ADD31RoundRect,0.102000X-0.654000X-0.654000X0.654000X-0.654000X0.654000X0.654000X-0.654000X0.654000X0*%
%ADD32C,1.512000*%
%ADD33R,1.500000X1.000000*%
%ADD34RoundRect,0.102000X-0.754000X-0.754000X0.754000X-0.754000X0.754000X0.754000X-0.754000X0.754000X0*%
%ADD35C,1.712000*%
%ADD36R,3.500000X2.350000*%
%ADD37RoundRect,0.150000X0.650000X0.150000X-0.650000X0.150000X-0.650000X-0.150000X0.650000X-0.150000X0*%
%ADD38RoundRect,0.170000X1.530000X1.980000X-1.530000X1.980000X-1.530000X-1.980000X1.530000X-1.980000X0*%
%ADD39R,1.600000X1.600000*%
%ADD40C,1.600000*%
%ADD41RoundRect,0.200000X-0.275000X0.200000X-0.275000X-0.200000X0.275000X-0.200000X0.275000X0.200000X0*%
%ADD42R,1.000000X0.750000*%
%ADD43R,1.320800X1.320800*%
%ADD44C,1.320800*%
%ADD45RoundRect,0.150000X0.150000X-0.512500X0.150000X0.512500X-0.150000X0.512500X-0.150000X-0.512500X0*%
%ADD46C,2.390000*%
%ADD47C,3.450000*%
%ADD48R,6.350000X7.340000*%
%ADD49RoundRect,0.204500X0.642500X0.102500X-0.642500X0.102500X-0.642500X-0.102500X0.642500X-0.102500X0*%
%ADD50RoundRect,0.204500X-0.642500X-0.102500X0.642500X-0.102500X0.642500X0.102500X-0.642500X0.102500X0*%
%ADD51RoundRect,0.250000X0.350000X0.625000X-0.350000X0.625000X-0.350000X-0.625000X0.350000X-0.625000X0*%
%ADD52O,1.200000X1.750000*%
%ADD53RoundRect,0.150000X-0.150000X0.512500X-0.150000X-0.512500X0.150000X-0.512500X0.150000X0.512500X0*%
G04 APERTURE END LIST*
D10*
%TO.C,C30*%
X111050000Y-69000000D03*
X112950000Y-69000000D03*
%TD*%
D11*
%TO.C,C29*%
X135500000Y-85775000D03*
X135500000Y-84225000D03*
%TD*%
D12*
%TO.C,C27*%
X158250000Y-124275000D03*
X158250000Y-122725000D03*
%TD*%
D13*
%TO.C,R9*%
X136000000Y-72825000D03*
X136000000Y-71175000D03*
%TD*%
D14*
%TO.C,D3*%
X162750000Y-140000000D03*
X164325000Y-140000000D03*
%TD*%
D11*
%TO.C,C2*%
X166000000Y-71225000D03*
X166000000Y-72775000D03*
%TD*%
D15*
%TO.C,R2*%
X118325000Y-129000000D03*
X116675000Y-129000000D03*
%TD*%
D16*
%TO.C,TP1*%
X112000000Y-90000000D03*
%TD*%
D11*
%TO.C,C26*%
X148000000Y-85225000D03*
X148000000Y-86775000D03*
%TD*%
D17*
%TO.C,C20*%
X111950000Y-102000000D03*
X110050000Y-102000000D03*
%TD*%
D18*
%TO.C,J12*%
X127815000Y-62000000D03*
D19*
X125275000Y-62000000D03*
X122735000Y-62000000D03*
X120195000Y-62000000D03*
%TD*%
D20*
%TO.C,R16*%
X153175000Y-110500000D03*
X154825000Y-110500000D03*
%TD*%
D11*
%TO.C,C16*%
X127000000Y-71225000D03*
X127000000Y-72775000D03*
%TD*%
D13*
%TO.C,R12*%
X123000000Y-72825000D03*
X123000000Y-71175000D03*
%TD*%
D14*
%TO.C,D4*%
X162750000Y-143000000D03*
X164325000Y-143000000D03*
%TD*%
D21*
%TO.C,C22*%
X114500000Y-103050000D03*
X114500000Y-104950000D03*
%TD*%
D22*
%TO.C,F1*%
X112000000Y-97787500D03*
X112000000Y-96212500D03*
%TD*%
D23*
%TO.C,Q1*%
X115687500Y-121450000D03*
X115687500Y-119550000D03*
X113812500Y-120500000D03*
%TD*%
D11*
%TO.C,C3*%
X153000000Y-71225000D03*
X153000000Y-72775000D03*
%TD*%
D24*
%TO.C,D1*%
X119500000Y-117500000D03*
X119500000Y-121500000D03*
%TD*%
D25*
%TO.C,D2*%
X117000000Y-102250000D03*
X121000000Y-102250000D03*
%TD*%
D12*
%TO.C,C25*%
X138250000Y-84225000D03*
X138250000Y-85775000D03*
%TD*%
D19*
%TO.C,J1*%
X106500000Y-150500000D03*
D18*
X103960000Y-150500000D03*
%TD*%
D26*
%TO.C,H3*%
X82600000Y-150000000D03*
X83302944Y-148302944D03*
X83302944Y-151697056D03*
X85000000Y-147600000D03*
D27*
X85000000Y-150000000D03*
D26*
X85000000Y-152400000D03*
X86697056Y-148302944D03*
X86697056Y-151697056D03*
X87400000Y-150000000D03*
%TD*%
D28*
%TO.C,C28*%
X143775000Y-78500000D03*
X142225000Y-78500000D03*
%TD*%
D26*
%TO.C,H4*%
X172600000Y-150000000D03*
X173302944Y-148302944D03*
X173302944Y-151697056D03*
X175000000Y-147600000D03*
D27*
X175000000Y-150000000D03*
D26*
X175000000Y-152400000D03*
X176697056Y-148302944D03*
X176697056Y-151697056D03*
X177400000Y-150000000D03*
%TD*%
D29*
%TO.C,C14*%
X111087500Y-67050000D03*
X112637500Y-67050000D03*
%TD*%
D28*
%TO.C,C12*%
X137775000Y-74500000D03*
X136225000Y-74500000D03*
%TD*%
D11*
%TO.C,C24*%
X149500000Y-85225000D03*
X149500000Y-86775000D03*
%TD*%
D30*
%TO.C,J11*%
X132500000Y-64275000D03*
X141500000Y-64275000D03*
D31*
X140000000Y-66375000D03*
D32*
X138000000Y-66375000D03*
X136000000Y-66375000D03*
X134000000Y-66375000D03*
%TD*%
D33*
%TO.C,SW1*%
X110640000Y-143000000D03*
X110640000Y-140500000D03*
X110640000Y-138000000D03*
X116360000Y-143000000D03*
X116360000Y-140500000D03*
X116360000Y-138000000D03*
%TD*%
D28*
%TO.C,C6*%
X163775000Y-74500000D03*
X162225000Y-74500000D03*
%TD*%
D11*
%TO.C,C19*%
X110500000Y-104225000D03*
X110500000Y-105775000D03*
%TD*%
D34*
%TO.C,J14*%
X160690000Y-98000000D03*
D35*
X163230000Y-98000000D03*
X165770000Y-98000000D03*
X168310000Y-98000000D03*
%TD*%
D29*
%TO.C,C15*%
X111087500Y-60750000D03*
X112637500Y-60750000D03*
%TD*%
D28*
%TO.C,C5*%
X165275000Y-76000000D03*
X163725000Y-76000000D03*
%TD*%
D36*
%TO.C,L1*%
X120000000Y-111525000D03*
X120000000Y-105475000D03*
%TD*%
D37*
%TO.C,U5*%
X167600000Y-131005000D03*
X167600000Y-129735000D03*
X167600000Y-128465000D03*
X167600000Y-127195000D03*
X160400000Y-127195000D03*
X160400000Y-128465000D03*
X160400000Y-129735000D03*
X160400000Y-131005000D03*
D38*
X164000000Y-129000000D03*
%TD*%
D39*
%TO.C,A1*%
X148552500Y-147800000D03*
D40*
X148552500Y-145260000D03*
X148552500Y-142720000D03*
X148552500Y-140180000D03*
X148552500Y-137640000D03*
X148552500Y-135100000D03*
X148552500Y-132560000D03*
X148552500Y-130020000D03*
X148552500Y-127480000D03*
X148552500Y-124940000D03*
X148552500Y-122400000D03*
X148552500Y-119860000D03*
X148552500Y-117320000D03*
X148552500Y-114780000D03*
X148552500Y-112240000D03*
X148552500Y-109700000D03*
X128232500Y-109700000D03*
X128232500Y-112240000D03*
X128232500Y-114780000D03*
X128232500Y-117320000D03*
X128232500Y-119860000D03*
X128232500Y-122400000D03*
X128232500Y-124940000D03*
X128232500Y-127480000D03*
X128232500Y-130020000D03*
X128232500Y-132560000D03*
X128232500Y-135100000D03*
X128232500Y-137640000D03*
%TD*%
D41*
%TO.C,R11*%
X121000000Y-71175000D03*
X121000000Y-72825000D03*
%TD*%
D42*
%TO.C,SW2*%
X153500000Y-141375000D03*
X159500000Y-141375000D03*
X153500000Y-145125000D03*
X159500000Y-145125000D03*
%TD*%
D43*
%TO.C,J5*%
X121499999Y-146154699D03*
D44*
X123500000Y-146154699D03*
%TD*%
D28*
%TO.C,C13*%
X136275000Y-76000000D03*
X134725000Y-76000000D03*
%TD*%
D13*
%TO.C,R7*%
X149000000Y-72825000D03*
X149000000Y-71175000D03*
%TD*%
D20*
%TO.C,R1*%
X116675000Y-127000000D03*
X118325000Y-127000000D03*
%TD*%
D18*
%TO.C,J8*%
X140815000Y-62000000D03*
D19*
X138275000Y-62000000D03*
X135735000Y-62000000D03*
X133195000Y-62000000D03*
%TD*%
D28*
%TO.C,C9*%
X150775000Y-74500000D03*
X149225000Y-74500000D03*
%TD*%
%TO.C,C10*%
X149275000Y-76000000D03*
X147725000Y-76000000D03*
%TD*%
D37*
%TO.C,U3*%
X167600000Y-123755000D03*
X167600000Y-122485000D03*
X167600000Y-121215000D03*
X167600000Y-119945000D03*
X160400000Y-119945000D03*
X160400000Y-121215000D03*
X160400000Y-122485000D03*
X160400000Y-123755000D03*
D38*
X164000000Y-121750000D03*
%TD*%
D28*
%TO.C,C8*%
X152275000Y-76000000D03*
X150725000Y-76000000D03*
%TD*%
D30*
%TO.C,J10*%
X145500000Y-64275000D03*
X154500000Y-64275000D03*
D31*
X153000000Y-66375000D03*
D32*
X151000000Y-66375000D03*
X149000000Y-66375000D03*
X147000000Y-66375000D03*
%TD*%
D28*
%TO.C,C7*%
X162275000Y-76000000D03*
X160725000Y-76000000D03*
%TD*%
D20*
%TO.C,R15*%
X153175000Y-112500000D03*
X154825000Y-112500000D03*
%TD*%
D45*
%TO.C,U1*%
X110912500Y-64975000D03*
X111862500Y-64975000D03*
X112812500Y-64975000D03*
X112812500Y-62700000D03*
X110912500Y-62700000D03*
%TD*%
D41*
%TO.C,R14*%
X112000000Y-107175000D03*
X112000000Y-108825000D03*
%TD*%
D17*
%TO.C,C21*%
X111950000Y-100000000D03*
X110050000Y-100000000D03*
%TD*%
D30*
%TO.C,J13*%
X119500000Y-64275000D03*
X128500000Y-64275000D03*
D31*
X127000000Y-66375000D03*
D32*
X125000000Y-66375000D03*
X123000000Y-66375000D03*
X121000000Y-66375000D03*
%TD*%
D12*
%TO.C,C23*%
X158250000Y-131525000D03*
X158250000Y-129975000D03*
%TD*%
D14*
%TO.C,D5*%
X162750000Y-137000000D03*
X164325000Y-137000000D03*
%TD*%
D20*
%TO.C,R10*%
X155500000Y-139500000D03*
X157150000Y-139500000D03*
%TD*%
D46*
%TO.C,J3*%
X88000000Y-140930000D03*
D47*
X104000000Y-132600000D03*
X88000000Y-77400000D03*
D48*
X96000000Y-144330000D03*
X96000000Y-65670000D03*
%TD*%
D28*
%TO.C,C1*%
X118275000Y-131000000D03*
X116725000Y-131000000D03*
%TD*%
D16*
%TO.C,TP2*%
X133500000Y-84000000D03*
%TD*%
D41*
%TO.C,R4*%
X164000000Y-71175000D03*
X164000000Y-72825000D03*
%TD*%
D18*
%TO.C,J7*%
X166815000Y-62000000D03*
D19*
X164275000Y-62000000D03*
X161735000Y-62000000D03*
X159195000Y-62000000D03*
%TD*%
D49*
%TO.C,U4*%
X145945000Y-87575000D03*
X145945000Y-86925000D03*
X145945000Y-86275000D03*
X145945000Y-85625000D03*
X145945000Y-84975000D03*
X145945000Y-84325000D03*
X145945000Y-83675000D03*
X145945000Y-83025000D03*
X145945000Y-82375000D03*
X145945000Y-81725000D03*
X145945000Y-81075000D03*
X145945000Y-80425000D03*
D50*
X140205000Y-80425000D03*
X140205000Y-81075000D03*
X140205000Y-81725000D03*
X140205000Y-82375000D03*
X140205000Y-83025000D03*
X140205000Y-83675000D03*
X140205000Y-84325000D03*
X140205000Y-84975000D03*
X140205000Y-85625000D03*
X140205000Y-86275000D03*
X140205000Y-86925000D03*
X140205000Y-87575000D03*
%TD*%
D17*
%TO.C,C17*%
X115400000Y-112000000D03*
X113500000Y-112000000D03*
%TD*%
D11*
%TO.C,C4*%
X140000000Y-71225000D03*
X140000000Y-72775000D03*
%TD*%
D41*
%TO.C,R8*%
X138000000Y-71175000D03*
X138000000Y-72825000D03*
%TD*%
D18*
%TO.C,J4*%
X121210000Y-149250000D03*
D19*
X123750000Y-149250000D03*
%TD*%
D28*
%TO.C,C11*%
X139275000Y-76000000D03*
X137725000Y-76000000D03*
%TD*%
D26*
%TO.C,H1*%
X82600000Y-60000000D03*
X83302944Y-58302944D03*
X83302944Y-61697056D03*
X85000000Y-57600000D03*
D27*
X85000000Y-60000000D03*
D26*
X85000000Y-62400000D03*
X86697056Y-58302944D03*
X86697056Y-61697056D03*
X87400000Y-60000000D03*
%TD*%
D18*
%TO.C,J6*%
X153815000Y-62000000D03*
D19*
X151275000Y-62000000D03*
X148735000Y-62000000D03*
X146195000Y-62000000D03*
%TD*%
D51*
%TO.C,J2*%
X97000000Y-135950000D03*
D52*
X95000000Y-135950000D03*
%TD*%
D13*
%TO.C,R5*%
X162000000Y-72825000D03*
X162000000Y-71175000D03*
%TD*%
D41*
%TO.C,R13*%
X112000000Y-104175000D03*
X112000000Y-105825000D03*
%TD*%
D20*
%TO.C,R17*%
X153175000Y-114500000D03*
X154825000Y-114500000D03*
%TD*%
D28*
%TO.C,C18*%
X122775000Y-74500000D03*
X121225000Y-74500000D03*
%TD*%
D20*
%TO.C,R3*%
X119600000Y-124250000D03*
X121250000Y-124250000D03*
%TD*%
D26*
%TO.C,H2*%
X172600000Y-60000000D03*
X173302944Y-58302944D03*
X173302944Y-61697056D03*
X175000000Y-57600000D03*
D27*
X175000000Y-60000000D03*
D26*
X175000000Y-62400000D03*
X176697056Y-58302944D03*
X176697056Y-61697056D03*
X177400000Y-60000000D03*
%TD*%
D41*
%TO.C,R6*%
X151000000Y-71175000D03*
X151000000Y-72825000D03*
%TD*%
D30*
%TO.C,J9*%
X158500000Y-64275000D03*
X167500000Y-64275000D03*
D31*
X166000000Y-66375000D03*
D32*
X164000000Y-66375000D03*
X162000000Y-66375000D03*
X160000000Y-66375000D03*
%TD*%
D53*
%TO.C,U2*%
X115450000Y-107362500D03*
X114500000Y-107362500D03*
X113550000Y-107362500D03*
X113550000Y-109637500D03*
X115450000Y-109637500D03*
%TD*%
M02*
